<?xml version="1.0" encoding="utf-8"?>
<!-- Generator: Adobe Illustrator 27.5.0, SVG Export Plug-In . SVG Version: 6.00 Build 0)  -->
<svg version="1.1" xmlns="http://www.w3.org/2000/svg" xmlns:xlink="http://www.w3.org/1999/xlink" x="0px" y="0px"
	 viewBox="0 0 500 500" style="enable-background:new 0 0 500 500;" xml:space="preserve">
<g id="BACKGROUND">
	<rect style="fill:#1c1f25;" width="500" height="500"/>
</g>
<g id="OBJECTS">
	<g>
		<path style="fill:#00e6ff;" d="M437.238,413.097C396.971,395.514,328.15,383.924,250,383.924s-146.971,11.59-187.238,29.173
			H437.238z"/>
		<g>
			<path style="fill:#00e6ff;" d="M284.492,372.199c-0.069,7.547,2.626,19.131,6.02,25.872
				C290.581,390.524,287.886,378.94,284.492,372.199z"/>
			<path style="fill:#00e6ff;" d="M293.109,366.997c-3.301,6.787-5.838,18.407-5.666,25.952
				C290.745,386.162,293.282,374.543,293.109,366.997z"/>
			<path style="fill:#00e6ff;" d="M298.169,376.555c-5.71,4.935-12.624,14.613-15.441,21.615
				C288.439,393.234,295.352,383.557,298.169,376.555z"/>
		</g>
		<g>
			<path style="fill:#00e6ff;" d="M363.982,372.207c-1.765,9.866-0.806,25.63,2.142,35.21
				C367.888,397.55,366.93,381.786,363.982,372.207z"/>
			<path style="fill:#00e6ff;" d="M376.418,367.308c-5.828,8.154-11.727,22.804-13.175,32.722
				C369.071,391.876,374.969,377.226,376.418,367.308z"/>
			<path style="fill:#00e6ff;" d="M380.922,380.945c-8.571,5.195-19.77,16.331-25.012,24.874
				C364.482,400.623,375.68,389.487,380.922,380.945z"/>
		</g>
		<g>
			<path style="fill:#00e6ff;" d="M232.884,367.141c5.532,13.14,18.879,31.208,29.812,40.358
				C257.164,394.359,243.817,376.29,232.884,367.141z"/>
			<path style="fill:#00e6ff;" d="M243.932,351.669c-0.642,14.242,3.659,36.29,9.608,49.246
				C254.182,386.673,249.881,364.625,243.932,351.669z"/>
			<path style="fill:#00e6ff;" d="M259.863,364.454c-6.207,12.834-10.949,34.792-10.592,49.044
				C255.478,400.664,260.22,378.706,259.863,364.454z"/>
		</g>
		<g>
			<path style="fill:#00e6ff;" d="M112.366,383.668c1.968,7.35,7.71,17.875,12.825,23.508
				C123.223,399.827,117.481,389.302,112.366,383.668z"/>
			<path style="fill:#00e6ff;" d="M119.334,376.292c-1.376,7.483-0.707,19.454,1.495,26.737
				C122.205,395.546,121.536,383.575,119.334,376.292z"/>
			<path style="fill:#00e6ff;" d="M126.827,384.211c-4.216,6.334-8.322,17.598-9.17,25.16
				C121.872,403.037,125.978,391.773,126.827,384.211z"/>
		</g>
	</g>
	<g>
		<path style="fill:#00e6ff;" d="M364.503,208.946c-0.148-0.254-0.492-0.523-0.964-0.798l1.066-2.794l-8.546-5.222l-5.179,0.227
			L335.614,206c0,0-17.105-24.2-21.134-30.073c0.71-0.276,1.043-0.767,0.838-1.557c-1.723-6.656-2.21-19.566-2.369-28.798
			l0.189-0.255c1.863,0.839,4.312,1.287,7.484,0.654l18.486,7.253c0,0,0.448,3.973,3.6,5.375c3.152,1.402,5.274-0.316,5.274-0.316
			s5.285,0.643,5.627-7.162c0,0,2.087-1.521-1.111-7.659c-3.198-6.138-18.736-23.113-18.736-23.113s0.378-3.58-5.468-6.321
			l-2.02-2.12c-1.943-2.039-4.459-3.44-7.216-4.019l0,0c-4.444-8.445-20.889-8.778-20.889-8.778s0.328,2.983,2.03,6.333
			c-13.745-0.21-24.42,18.106-38.538,20.561c0,0,3.262,3.884,7.778,3.884c-1.587,1.254-5.302,6.132-7.011,7.827
			c-10.667,10.581-19.529,10.177-25.603,8.4c0,0,3.651,8.815,13.175,9.875c-1.848,1.431-7.272,6.948-8.831,9.009
			c-6.555,8.667-9.333,14.649-15.667,14.602c0,0,14.489,7.918,25.155-2.666c-2.158,3.118-3.798,7.163-5.414,12.322
			c-3.481,11.111-10.667,14.444-10.667,14.444s9.578,2.142,15.816-4.747c-0.718,1.047-1.446,2.128-2.187,3.265
			c-10.519,16.148-24.655,22.233-45.333,31.704c-9.413,4.311-18.017,10.718-24.255,18.552
			c-12.783,13.003-47.449,16.559-58.412,42.337c0,0,8.296-5.037,14.519-6.222c0,0-14.815,15.111-17.185,40.296
			c-2.37,25.185-14.815,32-28.444,26.963c0,0,8.296,8.148,20.296,8.37c6.861,0.127,12.557-3.747,16.304-10.407
			c-1.074,5.726-3.498,13.022-8.97,16.629c0,0,20.885-0.541,27.95-23.398l2.307,4.953c0,0,15.742-10.667,13.742-35.778
			c-0.306-3.843,0.197-11.341,0.504-15.401l7.583-17.356c1.88,18.433,14.802,32.535,14.802,32.535
			c1.555,12.111-8.445,22.333-8.445,22.333s-7,7.222-6.333,8.445C169.503,348,181.614,374,182.614,380s4.778,7.444,4.778,7.444
			l-2.667,11.667c8.111,4,16.513,0,16.513,0l-5.846-9c0,0,0.444-3.333,0.444-4.111s-10.667-23.111-10.444-27.778
			c0.116-2.434,3.039-4.135,6.715-9.44c0.002,0.003,3.508,6.108,7.285,14.217c3.778,8.111,7.444,16.333,7.889,17.889
			c0.445,1.556,3.667,4.667,3.667,4.667l-0.667,12c8,2.889,16.333,0,16.333,0l-7.689-10l1.801-5.111
			c0,0-15.111-26.444-15.556-30.667c-0.444-4.222,16.445-26.667,23.111-37.111c5.361-8.399,4.551-18.855,4.028-22.631l3.142-2.079
			c19.846-7.753,49.655-19.587,68.368-45.238c1,1.073,3.019,2.286,3.399,2.286c1.778,0,35.508-23.688,36.693-23.837
			c1.008-0.126,2.823,1.781,5.007,2.262l-3.447,16.058l-3.19,1.401l4.366,12.366l-3.477,0.983l4,15.819l7.109-7.852l1.78-12.148
			c0,0,5.185-1.481,3.704-7.852C358.281,237.835,365.54,210.724,364.503,208.946z"/>
		<g>
			<g>
				<g>
					<g>
						<path style="fill:#1D3244;" d="M313.947,114.556c-2.03,0.358-4.183,0.279-6.292-0.272c-2.09-0.583-4.148-1.636-5.789-3.175
							c-1.636-1.544-2.852-3.453-3.79-5.429c-0.467-0.993-0.859-2.014-1.183-3.057c-0.323-1.07-0.574-2.049-0.744-3.292
							l-0.321-2.341l2.384,0.089c3.134,0.116,6.065,0.519,9.066,1.212c2.969,0.716,5.951,1.717,8.716,3.472
							c1.371,0.886,2.683,1.978,3.77,3.346c0.252,0.36,0.529,0.698,0.752,1.082l0.338,0.572l0.042,0.072l0.021,0.036l0.01,0.018
							l0.005,0.009c1.288,0.975-1.749-1.317-1.432-1.081l0.153,0.034l0.306,0.069c0.815,0.193,1.615,0.451,2.39,0.769
							c1.551,0.636,2.999,1.521,4.278,2.606c1.34,1.17,2.187,2.196,3.233,3.243l-0.646-0.465l1.108,0.561l1.089,0.65
							c0.711,0.49,1.419,1.003,2.061,1.667c0.645,0.648,1.244,1.401,1.701,2.3c0.221,0.456,0.424,0.927,0.558,1.451
							c0.074,0.256,0.125,0.531,0.166,0.814c0.016,0.15,0.037,0.283,0.042,0.45c0.006,0.181,0.018,0.267-0.009,0.613l-0.56-1.7
							c4.283,4.722,8.465,9.479,12.505,14.439c2.01,2.505,3.995,4.978,5.817,7.839c0.936,1.538,1.657,3.014,2.225,4.784
							c0.273,0.878,0.488,1.826,0.53,2.91c0.022,0.538-0.02,1.133-0.177,1.775c-0.081,0.322-0.196,0.659-0.376,1.012
							c-0.089,0.175-0.193,0.354-0.331,0.542c-0.058,0.086-0.15,0.195-0.234,0.29c-0.038,0.044-0.092,0.102-0.157,0.164
							c-0.059,0.054-0.104,0.106-0.283,0.241l0.889-1.658c-0.048,0.961-0.162,1.944-0.404,2.949
							c-0.251,1.002-0.627,2.036-1.262,3.017c-0.62,0.979-1.547,1.882-2.655,2.461c-0.552,0.293-1.142,0.499-1.743,0.632
							c-0.301,0.064-0.605,0.111-0.916,0.136c-0.156,0.012-0.313,0.02-0.477,0.02c-0.184-0.002-0.286,0.002-0.594-0.029l1.6-0.46
							c-0.288,0.221-0.4,0.281-0.587,0.393c-0.17,0.098-0.336,0.186-0.505,0.263c-0.336,0.161-0.68,0.283-1.029,0.387
							c-0.698,0.204-1.425,0.295-2.14,0.282c-0.715-0.009-1.419-0.121-2.07-0.319c-0.659-0.183-1.25-0.448-1.904-0.812
							c-1.24-0.751-2.207-1.846-2.833-2.99c-0.327-0.573-0.574-1.163-0.775-1.761c-0.103-0.299-0.188-0.6-0.263-0.909
							c-0.077-0.327-0.134-0.576-0.191-1.015l0-0.003l1.315,1.713l-18.528-7.146l0,0l1.238,0.11
							c-2.712,0.176-5.576-0.265-7.916-1.609c-1.17-0.654-2.181-1.521-3.002-2.492c-0.816-0.976-1.467-2.06-1.862-3.21
							c0.718,0.974,1.626,1.766,2.595,2.385c0.974,0.615,2.02,1.05,3.086,1.267c2.134,0.452,4.266,0.093,6.236-0.669l0.489-0.189
							l0.749,0.299l0,0l18.444,7.359l1.315,1.714l0,0c0.009,0.068,0.057,0.321,0.103,0.49c0.047,0.188,0.102,0.379,0.168,0.563
							c0.128,0.369,0.28,0.726,0.465,1.039c0.359,0.645,0.82,1.109,1.328,1.422c0.244,0.124,0.585,0.293,0.916,0.374
							c0.327,0.1,0.645,0.142,0.952,0.143c0.307,0.004,0.606-0.036,0.888-0.121c0.14-0.044,0.28-0.092,0.404-0.155
							c0.063-0.028,0.123-0.062,0.174-0.092c0.035-0.016,0.138-0.094,0.054-0.028l1.6-0.46c-0.096-0.011,0.017-0.001,0.046-0.004
							l0.162-0.009c0.115-0.01,0.233-0.03,0.349-0.055c0.232-0.055,0.455-0.132,0.656-0.244c0.402-0.221,0.75-0.539,1.04-1.004
							c0.594-0.92,0.894-2.338,0.948-3.822l0.889-1.658c-0.139,0.105-0.15,0.121-0.173,0.141l-0.056,0.056
							c-0.021,0.02-0.044,0.057-0.05,0.059c-0.02,0.029-0.026,0.035-0.026,0.035s0.015-0.038,0.028-0.1
							c0.026-0.126,0.056-0.326,0.038-0.578c-0.024-0.496-0.143-1.108-0.348-1.735c-0.4-1.24-1.066-2.633-1.781-3.789
							c-1.573-2.479-3.539-4.963-5.486-7.386c-3.943-4.851-8.112-9.601-12.323-14.25l-0.56-1.7
							c-0.014,0.163-0.005,0.066-0.009,0.064c0.003-0.016-0.009-0.065-0.01-0.098c-0.014-0.079-0.025-0.167-0.056-0.263
							c-0.044-0.189-0.137-0.393-0.231-0.598c-0.206-0.413-0.529-0.826-0.914-1.217c-0.372-0.4-0.858-0.754-1.348-1.103
							l-0.797-0.483l-0.852-0.439l-0.388-0.2l-0.259-0.266c-0.994-1.021-2.034-2.223-2.889-2.962
							c-0.931-0.802-1.989-1.46-3.125-1.936c-0.568-0.238-1.154-0.431-1.753-0.578l-0.225-0.053l-0.112-0.027
							c0.31,0.236-2.73-2.06-1.445-1.091l-0.003-0.006l-0.007-0.011l-0.014-0.023l-0.027-0.046l-0.214-0.368
							c-0.136-0.249-0.328-0.471-0.484-0.712c-0.719-0.916-1.654-1.726-2.716-2.423c-2.142-1.39-4.738-2.321-7.402-2.978
							c-2.656-0.642-5.511-1.044-8.186-1.162l2.062-2.252c0.096,0.738,0.314,1.709,0.572,2.55c0.263,0.867,0.583,1.718,0.961,2.536
							c0.752,1.642,1.763,3.116,2.91,4.446c0.582,0.659,1.178,1.311,1.835,1.927c0.663,0.607,1.387,1.167,2.165,1.687
							C310.203,113.057,311.995,113.875,313.947,114.556z"/>
					</g>
					<g>
						<path style="fill:#1D3244;" d="M333.349,137.716c-0.948,0.483-1.766,0.964-2.418,1.599c-0.647,0.641-1.203,1.405-1.91,2.183
							c-0.696,0.774-1.582,1.506-2.596,1.921c-1.003,0.433-2.079,0.598-3.134,0.515c0.892-0.596,1.737-1.078,2.492-1.639
							c0.752-0.568,1.394-1.189,2.057-1.898c0.663-0.693,1.384-1.513,2.362-2.077C331.174,137.749,332.312,137.553,333.349,137.716z
							"/>
					</g>
					<path style="fill:#1D3244;" d="M326.68,122.976c0.178,1.225,1.315,2.074,2.54,1.897c1.225-0.178,2.074-1.315,1.897-2.54
						c-0.178-1.225-1.315-2.074-2.54-1.897C327.352,120.614,326.503,121.751,326.68,122.976z"/>
					<path style="fill:#1D3244;" d="M348.997,148.516c0.245,1.214,0.935,2.098,1.542,1.976c0.607-0.122,0.9-1.205,0.655-2.419
						c-0.245-1.214-0.935-2.098-1.542-1.976C349.046,146.22,348.752,147.303,348.997,148.516z"/>
				</g>
				<g>
					<path style="fill:#1D3244;" d="M304.503,128c0.03,4.842,0.204,9.636,0.509,14.411c0.066,1.194,0.186,2.384,0.276,3.574
						c0.084,1.191,0.198,2.379,0.353,3.561c0.213,2.376,0.582,4.728,0.921,7.083c0.755,4.698,1.831,9.322,3.169,13.884
						c1.453,4.529,3.313,8.898,5.586,13.191c-3.124-3.705-5.571-8.009-7.411-12.544c-1.763-4.566-2.984-9.324-3.806-14.137
						c-0.315-2.419-0.664-4.834-0.817-7.265c-0.099-1.214-0.156-2.43-0.182-3.646c-0.046-1.215-0.082-2.431-0.041-3.646
						C303.118,137.609,303.493,132.747,304.503,128z"/>
				</g>
				<g>
					<path style="fill:#1D3244;" d="M285.688,225.481c1.108,1.458,2.592,2.495,4.113,3.256c0.78,0.359,1.557,0.676,2.37,0.885
						c0.8,0.231,1.622,0.364,2.43,0.471l0.003,0.001l0.624,0.203l0.388,0.54c1.72,2.397,3.491,4.794,5.29,7.135
						c0.901,1.172,1.813,2.33,2.74,3.459c0.922,1.117,1.885,2.253,2.818,3.159c0.11,0.098,0.233,0.225,0.328,0.296l0.148,0.125
						c0.033,0.02,0.064,0.042,0.094,0.066c0.055,0.044-0.029-0.028-0.046-0.019c-0.019-0.007,0.007,0.009-0.05-0.016
						c-0.059-0.025-0.122-0.045-0.186-0.059c-0.12-0.035-0.286-0.021-0.368-0.028c-0.087-0.008-0.178-0.002-0.265,0.017
						c-0.043,0.01-0.085,0.022-0.126,0.038l-0.059,0.026l0.016-0.009l0.148-0.075c0.478-0.246,1.136-0.644,1.735-1.025
						c1.225-0.776,2.458-1.598,3.685-2.429c2.455-1.663,4.9-3.366,7.342-5.073l14.635-10.319c2.45-1.721,4.881-3.439,7.401-5.133
						l0.978-0.637c0.181-0.112,0.317-0.206,0.537-0.331l0.314-0.179c0,0,0.23-0.12,0.407-0.182c0.182-0.066,0.383-0.122,0.557-0.149
						c0.277-0.021,0.652-0.015,0.85,0.032c0.194,0.04,0.459,0.1,0.587,0.155c0.327,0.116,0.563,0.235,0.787,0.35
						c0.414,0.224,0.762,0.439,1.072,0.629c1.232,0.785,2.271,1.245,3,1.193l0.002,0l2.109,0.141v1.856v13.926v0.413l-0.176,0.407
						c-0.446,1.032-0.863,2.222-1.162,3.335c-0.289,1.112-0.479,2.269-0.41,3.129c0.033,0.187,0.046,0.398,0.099,0.502
						c0.015,0.072,0.032,0.137,0.058,0.149c0.01,0.014,0.017,0.03,0.022,0.048l0.006,0.028c0.003,0.011,0.052,0.079,0.075,0.116
						c0.494,0.695,0.855,1.469,1.111,2.251c0.255,0.784,0.398,1.581,0.455,2.371c0.026,0.395,0.035,0.789,0.017,1.185
						c-0.02,0.418-0.04,0.744-0.135,1.276l-0.212,1.188l-1.204,0.341l-6.926,1.959l1.395-2.415l4,15.819l-3.422-0.852l7.109-7.852
						l-0.496,1.052l1.78-12.148l1.429-1.633c-0.031,0.009,0.109-0.041,0.18-0.073l0.268-0.128c0.18-0.096,0.352-0.207,0.519-0.322
						c0.332-0.237,0.599-0.525,0.833-0.825c0.437-0.62,0.685-1.365,0.706-2.252c0-0.443-0.011-0.903-0.117-1.387
						c-0.046-0.334-0.268-1.32-0.289-1.97c-0.095-1.397-0.017-2.652,0.078-3.908c0.443-4.969,1.358-9.697,2.248-14.443l1.377-7.073
						c0.445-2.337,0.916-4.716,1.198-6.949c0.038-0.283,0.055-0.535,0.078-0.793c0.014-0.227,0.012-0.48,0.011-0.493
						c0.097,0.49,0.344,0.649,0.231,0.559c-0.06-0.038-0.116-0.079-0.171-0.125l-0.295-0.163c-0.833-0.45-1.936-0.867-3.008-1.24
						c-2.173-0.747-4.478-1.39-6.733-1.956l1.632-0.314c-2.881,2.011-5.773,3.86-8.774,5.627c-2.997,1.757-6.066,3.414-9.31,4.832
						c-1.615,0.718-3.302,1.339-5.056,1.863c-0.429,0.144-0.906,0.221-1.357,0.333c-0.467,0.089-0.893,0.237-1.395,0.275
						l-1.47,0.156c-0.491,0.049-0.886,0.033-1.334,0.052c-1.743,0.038-3.494,0.038-5.269-0.049
						c-0.888-0.042-1.781-0.108-2.695-0.218c-0.456-0.052-0.92-0.123-1.395-0.209c-0.242-0.048-0.479-0.093-0.739-0.159
						l-0.399-0.107c-0.159-0.05-0.25-0.071-0.541-0.191l-0.048-0.022l-3.637-1.628l2.82-1.295c0.062-0.029,0.238-0.248,0.355-0.41
						c0.133-0.173,0.256-0.369,0.38-0.564c0.238-0.399,0.471-0.82,0.658-1.267c0.392-0.889,0.686-1.85,0.885-2.851
						c0.168-1.002,0.287-2.046,0.259-3.103c-0.001-1.061-0.133-2.128-0.308-3.205c0.49,0.968,0.953,1.973,1.294,3.037
						c0.366,1.06,0.593,2.173,0.755,3.32c0.13,1.148,0.152,2.331,0.026,3.53c-0.055,0.601-0.167,1.202-0.307,1.809
						c-0.077,0.304-0.154,0.607-0.26,0.916c-0.111,0.325-0.189,0.581-0.411,1.009l-0.818-2.923l-0.026-0.012
						c-0.093-0.04,0.019,0.005,0.066,0.016l0.22,0.058c0.154,0.04,0.337,0.075,0.514,0.11c0.365,0.066,0.746,0.125,1.139,0.169
						c0.783,0.095,1.594,0.156,2.413,0.195c1.639,0.08,3.308,0.081,4.98,0.045c0.405-0.018,0.868-0.004,1.226-0.048l1.079-0.118
						c0.354-0.015,0.745-0.154,1.116-0.223c0.377-0.096,0.75-0.145,1.131-0.276c1.52-0.457,3.048-1.012,4.555-1.684
						c3.02-1.319,5.978-2.912,8.876-4.611c2.89-1.699,5.759-3.537,8.483-5.438l0.763-0.533l0.869,0.218
						c2.401,0.604,4.727,1.25,7.096,2.062c1.19,0.422,2.352,0.833,3.636,1.519l0.49,0.277l0.559,0.403
						c0.337,0.282,1.066,0.89,1.213,1.995c0.066,0.585,0.034,0.933,0.019,1.305c-0.028,0.34-0.055,0.687-0.097,0.999
						c-0.322,2.531-0.794,4.866-1.244,7.245l-1.376,7.067c-0.883,4.688-1.782,9.409-2.19,14.011
						c-0.09,1.136-0.147,2.287-0.076,3.286c0.016,0.697,0.487,2.292,0.415,3.781c-0.027,1.51-0.505,3.161-1.477,4.491
						c-0.491,0.652-1.066,1.237-1.712,1.701c-0.324,0.229-0.659,0.441-1.01,0.626c-0.178,0.092-0.356,0.178-0.544,0.26
						c-0.205,0.085-0.344,0.147-0.662,0.245l1.429-1.633l-1.78,12.148l-0.088,0.602l-0.408,0.451l-7.109,7.852l-2.506,2.768
						l-0.915-3.62l-4-15.819l-0.477-1.886l1.872-0.529l6.926-1.958l-1.416,1.528c0.018-0.102,0.054-0.419,0.059-0.644
						c0.012-0.247,0.005-0.498-0.011-0.745c-0.036-0.494-0.126-0.973-0.269-1.414c-0.145-0.44-0.334-0.849-0.59-1.202l-0.166-0.271
						l-0.211-0.375c-0.152-0.26-0.235-0.501-0.305-0.74c-0.178-0.502-0.221-0.937-0.281-1.387c-0.118-1.717,0.187-3.13,0.527-4.506
						c0.374-1.373,0.807-2.622,1.382-3.955l-0.176,0.82v-13.926l2.109,1.997h-0.007c-1.132,0.057-2.178-0.218-3.044-0.574
						c-0.871-0.358-1.616-0.807-2.256-1.2c-0.325-0.201-0.614-0.374-0.857-0.506c-0.108-0.055-0.207-0.101-0.233-0.109
						c-0.042-0.022,0.033,0.019,0.048,0.009c0.017-0.001,0.202,0.034,0.293,0c0.085-0.003,0.202-0.015,0.297-0.047
						c0.091-0.025,0.233-0.109,0.154-0.063l-0.172,0.1c-0.106,0.057-0.279,0.174-0.416,0.257l-0.898,0.586
						c-2.436,1.636-4.881,3.365-7.316,5.076l-14.642,10.327c-2.451,1.715-4.906,3.424-7.394,5.11
						c-1.246,0.843-2.496,1.678-3.793,2.5c-0.663,0.416-1.275,0.806-2.125,1.242l-0.356,0.168l-0.047,0.021l-0.126,0.044
						l-0.26,0.076c-0.176,0.044-0.357,0.075-0.534,0.092c-0.172,0.02-0.43-0.021-0.641-0.065c-0.11-0.025-0.218-0.055-0.323-0.09
						c-0.103-0.035-0.115-0.049-0.176-0.075c-0.178-0.085-0.441-0.22-0.533-0.293l-0.363-0.257l-0.281-0.233
						c-0.198-0.16-0.335-0.302-0.503-0.454c-1.207-1.177-2.168-2.333-3.149-3.514c-0.967-1.178-1.902-2.366-2.821-3.561
						c-1.839-2.393-3.617-4.799-5.378-7.252l1.012,0.742l-0.004-0.002c-0.893-0.486-1.757-0.999-2.556-1.604
						c-0.809-0.582-1.539-1.266-2.214-1.966C287.273,228.894,286.202,227.255,285.688,225.481z"/>
				</g>
				<path style="fill:none;stroke:#1D3244;stroke-width:4;stroke-miterlimit:10;" d="M312.96,144.667c0,0-0.902,17.111,2.358,29.704
					c3.259,12.593,19.799,20.039,16.714,40.168"/>
				<g>
					<path style="fill:#1D3244;" d="M212.947,274.444c1.637,2.172,2.788,4.664,3.722,7.214c0.947,2.557,1.52,5.237,1.923,7.944
						c0.66,5.433,0.37,10.996-0.75,16.39c-1.162,5.391-3.219,10.576-5.956,15.351l-2.185,3.503
						c-0.737,1.147-1.509,2.191-2.262,3.292l-4.564,6.512l-9.207,12.919c-1.497,2.148-3.008,4.308-4.273,6.435
						c-0.609,1.057-1.173,2.12-1.439,3.061l-0.156,0.692c-0.007,0.219-0.074,0.475-0.051,0.662c0.032,0.192,0.027,0.347,0.051,0.57
						l0.175,0.824c0.259,1.129,0.653,2.354,1.061,3.561c0.415,1.215,0.846,2.436,1.312,3.655c0.92,2.439,1.901,4.875,2.914,7.304
						l3.087,7.297l0.77,1.852l0.384,0.97l0.096,0.252c0.038,0.109,0.045,0.093,0.133,0.38c0.136,0.434,0.208,1.009,0.17,1.178
						c-0.061,0.815-0.152,1.431-0.242,2.117l-0.287,1.997l-0.305-1.354l0.001,0.001l5.845,8.999l1.274,1.961l-2.092,0.934
						c-0.829,0.37-1.501,0.607-2.257,0.844c-0.737,0.233-1.484,0.419-2.235,0.587c-1.506,0.321-3.048,0.499-4.604,0.526
						c-1.555,0.042-3.13-0.11-4.673-0.438c-1.556-0.288-3.045-0.88-4.488-1.532l-1.43-0.645l0.364-1.594l2.667-11.667l1.235,2.313
						c-0.264-0.107-0.35-0.157-0.499-0.233c-0.141-0.071-0.253-0.142-0.38-0.215c-0.238-0.148-0.468-0.299-0.68-0.463
						c-0.436-0.32-0.818-0.678-1.187-1.048c-0.721-0.751-1.313-1.593-1.78-2.476c-0.469-0.882-0.841-1.8-1.093-2.728
						c-0.28-0.91-0.417-1.955-0.589-2.543c-0.355-1.429-0.921-3.014-1.485-4.544c-0.575-1.544-1.188-3.086-1.811-4.627
						c-2.526-6.159-5.25-12.279-8.043-18.351l-1.056-2.269l-0.531-1.125l-0.265-0.553l-0.116-0.234l-0.058-0.117l-0.06-0.122
						c-0.071-0.15-0.13-0.311-0.173-0.475c-0.097-0.382-0.069-0.496-0.074-0.734c0.007-0.244,0.036-0.338,0.062-0.479
						c0.06-0.301,0.123-0.432,0.192-0.633c0.132-0.322,0.266-0.579,0.398-0.813c0.265-0.465,0.529-0.848,0.798-1.228
						c0.537-0.751,1.087-1.43,1.644-2.101c1.118-1.332,2.263-2.595,3.441-3.841c1.119-1.139,2.077-2.358,3.006-3.664
						c3.656-5.166,6.036-11.405,5.29-17.44l0.509,1.096c-2.727-3.128-4.945-6.365-7.01-9.814c-2.037-3.439-3.795-7.055-5.186-10.827
						c-1.391-3.771-2.409-7.7-2.959-11.719c-0.551-4.014-0.444-8.168,0.161-12.198c1.33-8.088,5.081-15.602,10.155-21.834
						c5.056-6.285,11.368-11.417,18.25-15.459l2.611-1.471c0.885-0.462,1.789-0.889,2.683-1.334
						c1.801-0.905,3.546-1.644,5.319-2.475c3.53-1.617,7.041-3.247,10.503-4.942c6.901-3.403,13.59-7.158,19.311-12.049
						c2.855-2.445,5.432-5.186,7.727-8.159l0.867-1.11l0.803-1.161c0.537-0.785,1.065-1.519,1.615-2.359
						c1.078-1.645,2.195-3.266,3.329-4.875c2.289-3.205,4.684-6.34,7.247-9.351c1.279-1.507,2.6-2.984,3.965-4.428
						c1.388-1.453,2.745-2.819,4.366-4.218l-0.71,1.28l0.813-5.022c0.289-1.671,0.49-3.357,0.907-5.007
						c0.747-3.314,1.422-6.644,2.455-9.892l0.711-2.451l0.361-1.224l0.432-1.202l1.731-4.809c0.617-1.588,1.339-3.138,2.005-4.708
						c0.638-1.583,1.446-3.092,2.225-4.613c3.117-6.077,6.907-11.846,11.438-17.017l1.71-1.93l1.818-1.833
						c1.182-1.252,2.521-2.349,3.79-3.514c2.65-2.217,5.449-4.262,8.501-6.005l1.956,3.489c-2.761,1.578-5.387,3.489-7.868,5.565
						c-1.191,1.099-2.451,2.123-3.566,3.308l-1.717,1.729l-1.617,1.827c-4.291,4.895-7.905,10.391-10.89,16.212
						c-0.746,1.457-1.521,2.899-2.133,4.423c-0.638,1.51-1.334,2.995-1.928,4.524l-1.667,4.635l-0.417,1.158l-0.348,1.183
						l-0.687,2.369l-0.688,2.369l-0.339,1.186l-0.27,1.205l-1.081,4.821c-0.406,1.597-0.599,3.241-0.881,4.865l-0.793,4.885
						l-0.126,0.775l-0.585,0.505c-1.322,1.142-2.719,2.527-4.012,3.888c-1.305,1.382-2.578,2.803-3.814,4.26
						c-2.477,2.91-4.807,5.959-7.037,9.082c-1.105,1.569-2.195,3.149-3.248,4.756c-0.515,0.787-1.118,1.635-1.679,2.453
						l-0.857,1.236l-0.927,1.189c-2.454,3.18-5.231,6.131-8.285,8.745c-6.127,5.235-13.128,9.137-20.149,12.602
						c-3.522,1.725-7.064,3.368-10.603,4.989c-1.747,0.819-3.583,1.601-5.255,2.445c-0.845,0.422-1.701,0.824-2.539,1.261
						l-2.469,1.392c-6.507,3.82-12.456,8.671-17.154,14.516c-4.724,5.801-8.121,12.678-9.322,19.967
						c-0.538,3.649-0.649,7.339-0.142,11.038c0.506,3.686,1.445,7.324,2.743,10.846c1.298,3.523,2.951,6.93,4.877,10.179
						c1.918,3.222,4.133,6.414,6.517,9.149l0.435,0.499l0.075,0.598c0.46,3.675-0.051,7.385-1.157,10.798
						c-1.097,3.433-2.817,6.571-4.834,9.461c-1.012,1.428-2.138,2.852-3.37,4.108c-1.127,1.191-2.236,2.416-3.274,3.654
						c-0.514,0.619-1.02,1.246-1.458,1.86c-0.217,0.304-0.426,0.614-0.576,0.879c-0.074,0.131-0.13,0.248-0.159,0.314
						c0,0-0.021,0.06,0.007-0.033l0.018-0.169c0.002-0.134,0.003-0.139-0.049-0.424c-0.028-0.113-0.071-0.224-0.127-0.324
						c-0.044-0.078-0.017-0.027-0.014-0.021l0.021,0.041l0.083,0.164l0.164,0.329l0.278,0.581l0.544,1.15l1.067,2.293
						c2.814,6.119,5.55,12.261,8.116,18.518c0.634,1.569,1.261,3.144,1.856,4.745c0.591,1.617,1.171,3.193,1.629,5.019
						c0.261,1.033,0.325,1.664,0.54,2.358c0.185,0.691,0.453,1.335,0.77,1.933c0.315,0.6,0.701,1.141,1.142,1.601
						c0.225,0.221,0.454,0.441,0.697,0.616c0.119,0.094,0.242,0.171,0.358,0.246c0.056,0.03,0.12,0.074,0.167,0.095
						c0.036,0.022,0.138,0.066,0.068,0.038l1.235,2.314l-2.667,11.667l-1.065-2.239c1.142,0.502,2.302,0.984,3.546,1.206
						c1.228,0.261,2.497,0.389,3.778,0.352c1.279-0.022,2.568-0.168,3.837-0.439c0.632-0.142,1.263-0.299,1.878-0.494
						c0.599-0.181,1.263-0.431,1.73-0.637l-0.818,2.895l-5.845-8.999l-0.001-0.001l-0.388-0.574l0.083-0.78l0.206-1.943
						c0.061-0.628,0.128-1.327,0.145-1.833c0.018-0.168-0.066,0.099-0.015,0.215c0.045,0.127-0.02-0.039-0.041-0.084l-0.089-0.208
						l-0.379-0.862l-0.806-1.791l-3.242-7.268c-1.071-2.436-2.117-4.891-3.114-7.386c-0.991-2.519-1.969-4.973-2.663-7.832
						l-0.238-1.118c-0.062-0.431-0.09-0.94-0.116-1.407c-0.017-0.472,0.065-0.873,0.104-1.313c0.077-0.419,0.175-0.834,0.274-1.245
						c0.464-1.613,1.177-2.896,1.872-4.134c1.421-2.437,2.967-4.607,4.507-6.791l9.307-12.887l4.651-6.422
						c0.758-1.072,1.576-2.146,2.284-3.216l2.066-3.203c2.562-4.374,4.63-9.051,5.817-13.999c1.197-4.944,1.491-10.082,1.168-15.186
						C214.773,284.817,214.076,279.711,212.947,274.444z"/>
				</g>
				<g>
					<path style="fill:#1D3244;" d="M215.868,295.226c0.662-2.006,1.757-3.947,3.33-5.415c1.548-1.478,3.386-2.574,5.29-3.322
						c1.917-0.726,3.888-1.155,5.853-1.344c1.967-0.164,3.935-0.13,5.842,0.216c-1.904,0.313-3.741,0.805-5.502,1.406
						c-1.761,0.597-3.436,1.348-4.963,2.254c-1.53,0.91-2.827,2.062-3.972,3.27c-1.168,1.216-1.952,2.658-2.837,4.119
						L215.868,295.226z"/>
				</g>
				<path style="fill:none;stroke:#1D3244;stroke-width:4;stroke-miterlimit:10;" d="M216.474,302.514
					c0,0,0.918-6.958,18.992-13.181c18.074-6.222,50.928-17.378,68.353-44.615"/>
				<path style="fill:none;stroke:#1D3244;stroke-width:4;stroke-miterlimit:10;" d="M346.105,253.721l-3.825-10.832l4.556-2
					c0,0-0.815-2.778,1.222-5.445v-11.959"/>
				<polyline style="fill:none;stroke:#1D3244;stroke-width:4;stroke-miterlimit:10;" points="330.39,199.356 335.614,206 
					356.058,198.444 364.605,203.667 363.539,206.461 				"/>
				<path style="fill:none;stroke:#1D3244;stroke-width:4;stroke-miterlimit:10;" d="M232.071,290.588c0,0,2.876,13.634-3.79,24.079
					c-6.667,10.444-23.555,32.889-23.111,37.111c0.445,4.222,15.556,30.667,15.556,30.667l-1.801,5.111l7.689,10
					c0,0-8.333,2.889-16.333,0l0.667-12c0,0-3.222-3.111-3.667-4.667c-0.444-1.556-4.111-9.778-7.889-17.889
					c-3.778-8.111-8.939-14.958-8.939-14.958"/>
				<g>
					<path style="fill:#1D3244;" d="M180.045,253.88c-2.368,2.359-5.05,4.2-7.778,5.813c-2.738,1.6-5.542,2.979-8.343,4.302
						c-5.606,2.632-11.223,5.038-16.601,7.812c-5.37,2.764-10.517,5.903-14.944,9.813c-4.43,3.89-8.043,8.615-10.331,13.978
						l-2.878-2.492c1.207-0.72,2.371-1.356,3.58-1.988c1.204-0.625,2.422-1.226,3.668-1.785c2.498-1.111,5.066-2.12,7.934-2.704
						l6.116-1.244l-4.314,4.609c-1.159,1.238-2.344,2.741-3.428,4.203c-1.076,1.498-2.122,3.026-3.073,4.614
						c-1.919,3.165-3.626,6.468-5.036,9.897c-0.371,0.849-0.665,1.729-1.002,2.592l-0.491,1.3l-0.42,1.324
						c-0.274,0.884-0.571,1.762-0.827,2.652l-0.686,2.692c-0.251,0.892-0.42,1.803-0.589,2.713l-0.517,2.729l-0.703,5.575
						l-0.362,2.912c-0.118,0.971-0.35,1.935-0.521,2.902c-0.31,1.94-0.908,3.847-1.423,5.761c-1.237,3.783-2.964,7.531-5.652,10.741
						c-0.604,0.847-1.455,1.514-2.197,2.257c-0.363,0.384-0.815,0.676-1.247,0.988l-1.308,0.924
						c-0.462,0.268-0.951,0.497-1.427,0.744c-0.485,0.228-0.944,0.52-1.465,0.66c-1.021,0.327-2.027,0.734-3.091,0.859
						c-4.221,0.79-8.485,0.096-12.283-1.304l-0.002-0.001l2.095-3.303c0.829,0.692,1.897,1.438,2.909,2.086
						c1.032,0.658,2.095,1.271,3.185,1.819c2.173,1.109,4.45,1.978,6.772,2.567c1.164,0.282,2.34,0.498,3.521,0.631
						c0.587,0.106,1.182,0.105,1.774,0.149c0.293,0.012,0.599,0.049,0.882,0.043l0.836-0.042c2.226-0.104,4.382-0.703,6.343-1.776
						c1.977-1.059,3.677-2.669,5.155-4.501c1.457-1.851,2.728-3.933,3.663-6.207c1.946-4.529,3.19-9.386,4.966-14.527
						c0.652,2.639,0.887,5.364,0.675,8.072c-0.134,2.72-0.775,5.414-1.708,8.019c-0.926,2.611-2.257,5.12-3.912,7.453
						c-1.652,2.334-3.811,4.419-6.398,5.928c-1.297,0.738-2.666,1.383-4.119,1.803c-0.711,0.265-1.462,0.356-2.202,0.496
						c-0.371,0.058-0.741,0.147-1.114,0.175l-1.121,0.055c-2.967,0.125-5.745-0.266-8.494-1.017
						c-2.733-0.737-5.323-1.871-7.735-3.263c-1.218-0.677-2.357-1.481-3.476-2.303c-1.131-0.845-2.125-1.714-3.205-2.806
						l-5.872-5.934l7.967,2.631l0.002,0.001c3.326,1.227,6.862,1.745,10.153,1.126c0.842-0.084,1.607-0.423,2.402-0.663
						c0.408-0.097,0.756-0.341,1.132-0.514c0.368-0.193,0.747-0.363,1.109-0.568l1.021-0.731c0.34-0.244,0.699-0.461,0.988-0.78
						c0.591-0.612,1.28-1.111,1.778-1.832c2.215-2.64,3.769-5.924,4.891-9.366c0.467-1.763,1.023-3.498,1.311-5.326
						c0.159-0.908,0.379-1.799,0.489-2.719l0.342-2.758l0.728-5.762l0.545-2.885c0.179-0.962,0.36-1.924,0.623-2.868l0.726-2.845
						c0.271-0.94,0.583-1.868,0.873-2.802l0.445-1.398l0.517-1.373c0.355-0.911,0.668-1.84,1.058-2.736
						c1.489-3.619,3.288-7.104,5.318-10.451c2.066-3.358,4.265-6.501,7.058-9.532l1.802,3.365c-2.321,0.468-4.716,1.381-7.04,2.422
						c-1.166,0.523-2.319,1.093-3.462,1.685c-1.133,0.591-2.289,1.226-3.353,1.86l-5.277,3.148l2.399-5.64
						c2.534-5.958,6.573-11.21,11.364-15.41c4.791-4.229,10.227-7.52,15.759-10.371c5.54-2.856,11.221-5.287,16.729-7.875
						c5.461-2.597,10.957-5.331,14.974-9.3L180.045,253.88z"/>
				</g>
				<g>
					<path style="fill:#1D3244;" d="M129.425,350.326c-0.204,2.216-0.615,4.171-1.169,6.201c-0.561,2.003-1.294,3.966-2.208,5.863
						c-0.901,1.904-2.081,3.696-3.425,5.367c-1.347,1.681-3.019,3.102-4.796,4.358l-0.001,0.001l-1.152-3.669
						c0.496-0.049,1.171-0.141,1.768-0.259c0.614-0.116,1.23-0.255,1.843-0.401c1.227-0.3,2.429-0.698,3.617-1.121
						c2.357-0.904,4.609-2.055,6.682-3.461c2.059-1.426,3.945-3.093,5.59-4.988c1.633-1.904,3.04-4.016,4.205-6.276
						c2.36-4.513,3.701-9.607,4.449-14.799c0.793-5.211,1.061-10.53,1.676-16.029c0.416,1.318,0.738,2.658,1.053,4.005
						c0.264,1.351,0.469,2.717,0.644,4.088c0.17,1.373,0.209,2.756,0.287,4.142c0.029,1.387-0.017,2.78-0.085,4.171
						c-0.253,2.777-0.603,5.567-1.298,8.311c-0.285,1.384-0.751,2.732-1.162,4.093c-0.524,1.327-0.999,2.676-1.656,3.957
						c-2.419,5.2-6.276,9.874-11.122,13.116c-2.413,1.63-5.045,2.908-7.779,3.846c-1.371,0.46-2.77,0.826-4.188,1.108
						c-0.71,0.14-1.425,0.254-2.15,0.335c-0.742,0.086-1.414,0.142-2.27,0.16l-6.624,0.137l5.472-3.807l0.001,0
						c1.427-1.027,2.795-2.162,3.915-3.567c1.117-1.397,2.13-2.91,2.913-4.573c0.796-1.652,1.448-3.391,1.95-5.181
						c0.492-1.766,0.874-3.687,1.031-5.395L129.425,350.326z"/>
				</g>
				<path style="fill:none;stroke:#1D3244;stroke-width:4;stroke-miterlimit:10;" d="M145.76,342.826l1.223,9.174
					c0,0,15.742-10.667,13.742-35.778c-2-25.111,7.864-31.89,7.864-31.89"/>
				<g>
					<path style="fill:#1D3244;" d="M300.23,108.354c-1.615-0.406-3.256-0.549-4.873-0.346c-1.617,0.195-3.209,0.709-4.748,1.452
						c-3.087,1.493-5.92,3.819-8.734,6.243c-2.821,2.433-5.642,5.028-8.851,7.313c-3.186,2.274-6.886,4.247-11.02,4.959l1.316-3.087
						l0-0.001c0.027,0.066,0.19,0.298,0.31,0.451c0.134,0.171,0.276,0.342,0.43,0.505c0.304,0.331,0.642,0.636,1,0.914
						c0.718,0.555,1.525,0.998,2.399,1.279c1.745,0.583,3.749,0.51,5.703-0.049l0.815,2.287c-2.182,0.921-4.748,1.393-7.301,0.88
						c-1.269-0.244-2.499-0.729-3.616-1.394c-0.559-0.334-1.093-0.709-1.593-1.133c-0.252-0.21-0.494-0.435-0.732-0.671
						c-0.249-0.256-0.441-0.447-0.733-0.832l-0.002-0.003l-1.741-2.562l3.058-0.525c3.328-0.571,6.47-2.196,9.39-4.28
						c2.933-2.085,5.675-4.593,8.552-7.078c2.882-2.47,5.905-5.013,9.615-6.821c1.848-0.893,3.883-1.564,6.009-1.819
						c2.125-0.267,4.301-0.073,6.334,0.443L300.23,108.354z"/>
				</g>
				<g>
					<path style="fill:#1D3244;" d="M281.947,125.778c-1.993,0.932-3.81,2.022-5.565,3.186c-0.886,0.562-1.737,1.175-2.582,1.784
						l-1.26,0.921l-1.223,0.969c-1.609,1.313-3.225,2.605-4.724,4.045c-0.772,0.691-1.484,1.451-2.215,2.187
						c-0.716,0.737-1.576,1.566-2.371,2.333c-3.322,3.037-7.221,5.713-11.772,7.144c-2.27,0.691-4.674,1.066-7.063,0.985
						c-2.388-0.058-4.731-0.548-6.909-1.296l2.392-2.725v0c0.276,0.617,0.721,1.405,1.157,2.075c0.451,0.69,0.943,1.354,1.475,1.976
						c1.066,1.241,2.282,2.338,3.643,3.146c1.353,0.823,2.843,1.357,4.397,1.576c1.555,0.216,3.17,0.103,4.767-0.252l0.826,3.395
						c-1.932,0.481-3.993,0.686-6.045,0.45c-2.051-0.236-4.062-0.909-5.836-1.933c-1.788-1.01-3.333-2.348-4.665-3.827
						c-0.665-0.743-1.275-1.526-1.837-2.344c-0.566-0.843-1.051-1.621-1.544-2.65l0-0.001l-1.762-3.658l4.154,0.933
						c1.952,0.439,3.887,0.671,5.801,0.636c1.914-0.043,3.803-0.38,5.636-0.969c3.666-1.207,7.072-3.404,10.188-6.031
						c0.771-0.706,1.485-1.342,2.326-2.086c0.835-0.738,1.647-1.494,2.526-2.183c1.702-1.432,3.529-2.731,5.447-3.871
						c1.924-1.133,3.966-2.076,6.078-2.798C277.509,126.215,279.72,125.692,281.947,125.778z"/>
				</g>
				<g>
					<path style="fill:#1D3244;" d="M266.614,154.518c-2.186,0.393-4.258,0.732-6.265,1.189c-2.003,0.473-3.932,1.026-5.788,1.728
						c-3.745,1.341-7.001,3.684-9.655,6.563c-0.674,0.714-1.273,1.497-1.872,2.277l-1.847,2.542
						c-1.23,1.713-2.427,3.467-3.754,5.209c-1.328,1.741-2.725,3.529-4.667,5.095c-0.957,0.79-2.125,1.447-3.373,1.918
						c-1.272,0.465-2.624,0.581-3.905,0.562l0.975-3.755l0.002,0.001c0.924,0.478,2.099,0.953,3.202,1.32
						c1.126,0.371,2.275,0.672,3.434,0.888c2.314,0.425,4.673,0.541,6.932,0.176c2.264-0.34,4.412-1.154,6.327-2.377
						c1.907-1.237,3.573-2.876,4.984-4.753l3.21,2.387c-1.646,2.195-3.658,4.196-6.032,5.732c-2.379,1.526-5.098,2.549-7.877,2.965
						c-2.781,0.444-5.588,0.297-8.278-0.197c-1.347-0.251-2.668-0.598-3.962-1.025c-1.311-0.446-2.514-0.911-3.854-1.603
						l-0.007-0.003l-6.25-3.139l7.225-0.616c0.845-0.072,1.629-0.233,2.352-0.543c0.721-0.334,1.405-0.773,2.076-1.359
						c1.339-1.165,2.574-2.777,3.811-4.423l3.737-5.143c0.639-0.867,1.278-1.731,1.957-2.591c0.731-0.883,1.465-1.761,2.285-2.568
						c3.203-3.295,7.307-5.742,11.685-7.002c2.191-0.625,4.465-0.906,6.703-0.809C262.359,153.245,264.566,153.66,266.614,154.518z"
						/>
				</g>
				<g>
					<path style="fill:#1D3244;" d="M261.003,169.63c-1.53,1.427-2.953,2.53-4.198,3.714c-1.243,1.171-2.374,2.316-3.393,3.624
						c-2.003,2.637-3.309,5.941-4.51,9.326l-0.841,2.588l-0.432,1.316l-0.497,1.424c-0.693,1.889-1.539,3.744-2.643,5.464
						c-1.067,1.739-2.358,3.352-3.832,4.794c-0.729,0.729-1.544,1.377-2.381,1.997c-0.421,0.308-0.865,0.592-1.322,0.862
						c-0.492,0.277-0.876,0.502-1.535,0.778l-0.002,0.001l-0.404-3.766c0.633,0.12,1.505,0.226,2.28,0.246
						c0.798,0.039,1.597,0.009,2.39-0.052c1.584-0.139,3.127-0.501,4.553-1.085c0.73-0.265,1.381-0.668,2.053-1.035
						c0.606-0.462,1.27-0.85,1.795-1.413c1.165-0.996,2.016-2.318,2.83-3.653l3.52,1.9c-1.003,1.685-2.112,3.363-3.637,4.692
						c-0.7,0.724-1.56,1.264-2.37,1.854c-0.873,0.494-1.739,1.006-2.674,1.355c-1.843,0.755-3.784,1.198-5.721,1.368
						c-0.97,0.077-1.939,0.11-2.908,0.064c-0.992-0.038-1.883-0.126-2.986-0.339l-5.097-0.987l4.693-2.779l0,0
						c0.182-0.133,0.582-0.419,0.874-0.649c0.317-0.254,0.624-0.525,0.934-0.8c0.611-0.559,1.193-1.158,1.74-1.795
						c1.108-1.259,2.056-2.664,2.908-4.128c0.848-1.469,1.522-3.049,2.131-4.656l0.424-1.222l0.438-1.348
						c0.282-0.911,0.641-1.812,0.965-2.717c0.704-1.805,1.447-3.62,2.383-5.385c0.959-1.756,2.08-3.482,3.458-5.048
						c1.352-1.577,3.044-2.951,4.975-3.749C256.891,169.597,258.952,169.261,261.003,169.63z"/>
				</g>
			</g>
			<g>
				<path style="fill:#1D3244;" d="M209.662,265.005c0.35,1.41,1.203,2.278,2.119,3.201c0.937,0.901,1.969,1.771,2.934,2.763
					c0.971,0.983,1.898,2.074,2.638,3.31c0.738,1.226,1.291,2.622,1.346,4.06c-0.856-1.153-1.708-2.142-2.619-3.099
					c-0.91-0.952-1.872-1.856-2.83-2.816c-0.961-0.954-1.919-1.976-2.729-3.188c-0.186-0.323-0.39-0.624-0.55-0.962
					c-0.138-0.36-0.316-0.677-0.395-1.063C209.35,266.487,209.406,265.659,209.662,265.005z"/>
			</g>
			<g>
				<path style="fill:#1D3244;" d="M173.023,263.55c-1.719,2.77-4.061,4.93-6.4,6.941c-2.372,1.991-4.829,3.804-7.228,5.668
					c-4.804,3.699-9.51,7.482-13.433,12.019c-3.987,4.465-7.159,9.632-9.34,15.239c-2.2,5.607-3.323,11.622-3.849,17.695
					c0.027-1.522-0.042-3.057,0.096-4.58l0.153-2.292l0.271-2.284c0.457-3.031,1.078-6.061,2.058-8.994
					c1.937-5.869,5.055-11.37,9.026-16.141c4.001-4.755,8.729-8.811,13.582-12.523c2.421-1.865,4.867-3.678,7.181-5.586
					c1.165-0.944,2.283-1.926,3.337-2.955c1.028-1.046,1.992-2.137,2.8-3.314L173.023,263.55z"/>
			</g>
			<g>
				<path style="fill:#1D3244;" d="M137.217,341.783c2.318-3.26,3.634-6.926,4.529-10.687c0.889-3.769,1.374-7.65,1.916-11.557
					c0.543-3.905,1.085-7.871,2.161-11.752c1.059-3.853,2.672-7.723,5.395-10.67c-1.984,3.462-3.026,7.229-3.741,11.052
					c-0.697,3.832-1.106,7.733-1.605,11.664c-0.506,3.925-1.129,7.903-2.377,11.757
					C142.266,335.412,140.286,339.184,137.217,341.783z"/>
			</g>
		</g>
	</g>
</g>
</svg>
